HIERARCHY
ROOT Hips
{
  OFFSET 265.287 66.7526 -254.649
  CHANNELS 6 Xposition Yposition Zposition Zrotation Xrotation Yrotation
  JOINT LeftUpLeg
  {
    OFFSET 8.64259 1.95398 -2.38835
    CHANNELS 3 Zrotation Xrotation Yrotation
    JOINT LeftLeg
    {
      OFFSET 43.7702 0 0
      CHANNELS 3 Zrotation Xrotation Yrotation
      JOINT LeftFoot
      {
        OFFSET 40.6238 0 0
        CHANNELS 3 Zrotation Xrotation Yrotation
        JOINT LeftToeBase
        {
          OFFSET 12.7242 0 0
          CHANNELS 3 Zrotation Xrotation Yrotation
          End Site
          {
            OFFSET 0 0 0
          }
        }
      }
    }
  }
  JOINT RightUpLeg
  {
    OFFSET -8.2249 1.95398 -2.59336
    CHANNELS 3 Zrotation Xrotation Yrotation
    JOINT RightLeg
    {
      OFFSET 43.5653 0 0
      CHANNELS 3 Zrotation Xrotation Yrotation
      JOINT RightFoot
      {
        OFFSET 40.6238 0 0
        CHANNELS 3 Zrotation Xrotation Yrotation
        JOINT RightToeBase
        {
          OFFSET 12.7242 0 0
          CHANNELS 3 Zrotation Xrotation Yrotation
          End Site
          {
            OFFSET 0 0 0
          }
        }
      }
    }
  }
  JOINT Spine
  {
    OFFSET 0.165834 0.87714 6.61349
    CHANNELS 3 Zrotation Xrotation Yrotation
    JOINT Spine1
    {
      OFFSET 7.38963 1.71661e-005 0
      CHANNELS 3 Zrotation Xrotation Yrotation
      JOINT Spine2
      {
        OFFSET 11.9445 1.14441e-005 0
        CHANNELS 3 Zrotation Xrotation Yrotation
        JOINT Spine3
        {
          OFFSET 14.7254 4.19617e-005 0
          CHANNELS 3 Zrotation Xrotation Yrotation
          JOINT Spine4
          {
            OFFSET 10.9679 0 0
            CHANNELS 3 Zrotation Xrotation Yrotation
            JOINT RightShoulder
            {
              OFFSET 2.46616 -1.6653 3.69651
              CHANNELS 3 Zrotation Xrotation Yrotation
              JOINT RightArm
              {
                OFFSET 13.0012 0 0
                CHANNELS 3 Zrotation Xrotation Yrotation
                JOINT RightForeArm
                {
                  OFFSET 28.7848 1.52588e-005 0
                  CHANNELS 3 Zrotation Xrotation Yrotation
                  JOINT RightHand
                  {
                    OFFSET 26.5688 1.52588e-005 0
                    CHANNELS 3 Zrotation Xrotation Yrotation
                    End Site
                    {
                      OFFSET 0 0 0
                    }
                  }
                }
              }
            }
            JOINT LeftShoulder
            {
              OFFSET 2.38034 -1.29275 -3.7523
              CHANNELS 3 Zrotation Xrotation Yrotation
              JOINT LeftArm
              {
                OFFSET 16.3182 6.10351e-005 0
                CHANNELS 3 Zrotation Xrotation Yrotation
                JOINT LeftForeArm
                {
                  OFFSET 27.0901 0 0
                  CHANNELS 3 Zrotation Xrotation Yrotation
                  JOINT LeftHand
                  {
                    OFFSET 24.5451 1.52588e-005 0
                    CHANNELS 3 Zrotation Xrotation Yrotation
                    End Site
                    {
                      OFFSET 0 0 0
                    }
                  }
                }
              }
            }
            JOINT Neck
            {
              OFFSET 5.0226 -0.0266342 0
              CHANNELS 3 Zrotation Xrotation Yrotation
              JOINT Head
              {
                OFFSET 6.69364 2.86102e-005 0
                CHANNELS 3 Zrotation Xrotation Yrotation
                End Site
                {
                  OFFSET 0 0 0
                }
              }
            }
          }
        }
      }
    }
  }
}
MOTION
Frames:	18
Frame Time:	0.0416667
-12.1404 76.548 -69.7568 64.2061 -59.7033 60.982 -144.799 66.3083 74.4957 -55.8162 19.7158 -7.2889 52.4257 -1.44416 15.2941 34.5522 -1.5349 -4.25734 176.457 52.121 73.4397 -90.3479 -13.7364 -3.20776 76.3174 -7.4713 12.5842 60.9793 -4.09841 3.23962 0.210673 14.8907 -89.4421 -2.9124 0.610173 1.13243 -14.5837 0.659428 1.10447 -37.1151 0.241653 1.26344 -17.1025 0.241654 1.26344 91.1425 -25.7076 -106.239 8.04253 18.9704 -76.5545 -3.8038 9.97772 -3.93876 1.83351 -0.0525578 -6.25861 -98.4153 -35.0732 60.0196 -6.76922 -11.5942 -85.0417 3.5496 -29.2316 0.00655319 9.007 -0.621405 -9.69452 -25.0626 -2.02921 1.45466 58.8298 3.88282 10.2603 
0.441467 77.7875 -57.4462 59.3735 -58.6013 60.73 -147.833 66.0637 77.4488 -73.5722 17.589 -3.99844 66.1686 5.92799 14.2584 40.2334 -3.50674 0.669619 174.336 42.7297 72.7109 -85.396 -18.7102 -3.13347 58.1758 1.20975 13.1767 62.7845 -2.91784 9.64429 0.569949 14.4431 -89.463 -2.02125 1.32251 1.14081 -13.692 1.37145 1.0815 -36.2262 0.91855 1.4855 -16.2135 0.918541 1.48549 88.2811 -35.6789 -108.049 7.29702 13.8942 -69.3227 0.115894 5.97465 -7.35701 -12.5247 -0.363992 -1.47296 -98.7729 -36.3404 60.0061 -10.3814 -4.04878 -81.7671 2.36927 -27.9413 0.351604 16.8531 -0.697251 -7.89342 -9.67123 -0.682296 0.727264 45.1845 3.71904 10.0061 
11.2958 79.9872 -45.4904 54.1446 -54.7621 58.0527 -153.999 59.7715 80.7781 -75.2732 26.3107 -3.96884 66.8337 8.99933 27.0523 53.4957 -7.05985 4.76193 175.017 41.9068 74.8755 -87.1421 -19.485 -3.38085 40.2506 9.3943 13.6095 24.0645 0.638172 0.351435 0.587771 13.5696 -89.271 -0.277625 1.44001 1.48126 -11.9485 1.5038 1.41644 -34.4801 0.928345 1.84547 -14.4674 0.928336 1.84546 90.5482 -39.7593 -102.765 13.0046 7.55617 -60.0892 -0.581419 0.926161 -19.2413 -12.5272 -0.420533 -1.2473 -95.7956 -38.518 65.9096 -19.4979 1.71612 -75.945 3.64846 -15.8542 -5.82273 16.6938 -0.689275 -7.86941 1.48136 0.00541609 7.91544 35.3194 -0.819548 1.34679 
21.6946 83.8282 -33.1718 46.3637 -49.8894 53.1227 -160.585 49.5599 85.2391 -65.1837 28.2646 -4.58133 69.3981 10.8695 27.3921 57.9014 -7.72969 7.78876 164.663 51.5517 87.5888 -91.2064 -13.4424 -1.80856 50.8244 4.51156 9.85464 21.4137 1.88493 -4.95498 0.461469 12.5749 -89.4135 1.71468 1.1463 1.17327 -9.95631 1.19684 1.12167 -32.4889 0.740737 1.4635 -12.4763 0.740733 1.46348 94.3838 -44.1217 -95.216 15.7723 5.15903 -48.5934 -4.85465 -3.27203 -46.6451 -15.425 -0.366385 -2.50132 -89.1188 -36.5171 76.7468 -32.3033 7.47309 -68.5633 10.1576 0.263213 -24.4736 10.3719 -0.414215 -7.43592 6.5409 1.33234 2.20795 32.9197 2.87842 6.14009 
32.6873 87.7258 -21.0967 43.4359 -47.3769 53.0077 -167.232 36.6087 89.9409 -51.5898 26.4739 -3.34755 64.3466 5.34043 17.5231 62.1946 -8.66522 8.26761 143.901 56.4844 106.813 -82.3201 -13.8391 3.02414 60.2809 3.17152 22.0197 36.5656 -1.31244 4.14748 0.305466 11.7387 -90.1597 3.3969 0.546779 -0.310017 -8.27395 0.532597 -0.333792 -30.8099 0.614659 -0.131369 -10.7973 0.61467 -0.131357 99.3436 -42.7273 -86.9917 24.5132 4.17162 -40.3301 -18.0543 -5.31876 -73.9993 -13.8787 -0.590821 -0.245994 -84.5946 -35.9671 84.6417 -28.7339 12.357 -59.0607 7.47025 -1.69065 -42.7675 4.74858 -0.42394 -9.7244 4.42013 3.93046 -5.00985 30.8995 9.09792 14.0504 
44.504 91.158 -7.39325 42.0822 -48.5333 50.7197 -173.869 18.5339 89.7189 -31.4088 19.2021 0.545912 40.7117 -5.86696 -7.25253 64.0379 -10.4255 2.82516 146.526 57.6147 108.375 -57.4479 -17.8029 10.6939 61.438 4.28878 24.1088 59.3516 -2.65613 12.0856 0.138572 10.8819 -90.407 5.10901 0.109158 -0.803979 -6.56218 0.0736514 -0.808025 -29.0956 0.345736 -0.734014 -9.08293 0.345719 -0.734036 100.597 -38.8413 -84.9906 26.9302 -4.17355 -30.7896 -18.1451 -1.77397 -87.0507 -21.1713 -0.791786 -0.890435 -84.864 -41.0083 84.9736 -18.5027 15.0062 -42.8131 -0.696462 -8.14752 -56.8825 5.85088 -0.722079 -13.1346 -1.38711 6.30527 -10.1332 27.3229 13.6765 22.5004 
56.1942 91.9234 7.03351 50.6805 -51.0821 55.9954 175.759 9.77784 87.6447 -44.946 19.7189 5.0373 30.4882 -8.29023 -7.81804 50.7374 -5.99555 7.44279 163.022 52.9841 97.4267 -46.1185 -12.7256 9.74572 57.9951 4.63434 16.0287 60.633 -3.76265 4.84816 0.144072 10.7972 -90.5608 5.28101 0.0557599 -1.10475 -6.39033 0.00709463 -1.10614 -28.9226 0.385202 -1.03693 -8.90996 0.385198 -1.03692 99.3956 -41.351 -86.9907 23.1474 -11.2997 -23.6184 -10.2265 3.42418 -93.3891 -20.861 -0.444263 -2.74923 -84.4715 -47.3066 86.483 -11.8628 15.0178 -34.8542 -2.50088 -9.57095 -66.5168 9.90203 -0.984579 -12.6844 7.21139 5.10594 -13.806 13.9488 12.0472 27.2931 
66.9755 89.6342 21.028 60.4223 -50.5536 64.7057 175.057 22.807 89.3682 -86.3714 14.7303 2.57476 40.8213 -5.47295 5.32799 47.2012 -5.58012 1.51593 167.176 43.1752 96.0178 -55.306 -10.7153 6.50789 63.7551 0.725534 7.82079 50.0226 -3.01613 0.48806 0.646896 10.7499 -90.9023 5.37661 0.917786 -1.789 -6.29532 0.838174 -1.82764 -28.8258 1.41295 -1.43057 -8.81315 1.41295 -1.43056 98.9195 -39.1871 -87.9914 24.5533 -15.2997 -17.207 -4.71159 4.60006 -101.881 -19.5313 -0.260229 -3.67848 -83.7649 -49.8252 87.8679 -3.30528 17.8898 -31.9399 -11.6023 -11.7796 -78.5508 17.8342 -1.14979 -10.3876 16.2162 2.78493 -4.12325 9.0923 5.72728 16.7741 
77.6446 87.722 35.8716 63.8907 -46.3577 65.8462 178.778 46.1284 87.2525 -104.029 8.16731 1.05216 51.68 0.850509 14.8063 44.5255 -4.78198 2.03132 170.492 28.0667 91.5938 -53.039 -12.6632 5.40576 72.0597 -5.09103 -0.0653824 58.7292 -3.93305 2.58549 1.09121 9.87745 -90.7003 7.12902 1.87801 -1.46436 -4.5415 1.81173 -1.54561 -27.0849 2.23125 -0.83211 -7.07223 2.23124 -0.832105 98.951 -32.685 -88.5002 31.7836 -22.6102 -2.64588 -0.869263 6.24653 -110.599 -20.2296 -0.54676 -2.08586 -83.461 -51.2833 88.4733 8.1545 24.7651 -27.6719 -22.2996 -12.4188 -88.8876 18.1493 -0.707576 -7.77756 12.2024 -0.995557 4.63171 9.37397 -1.30827 6.93927 
89.0968 89.231 52.5963 64.5217 -44.1098 64.8731 -170.826 58.7144 77.8638 -85.1912 17.7186 -0.337153 57.5225 0.994646 11.2935 48.9018 -6.04237 1.9987 174.608 4.9817 90.4494 -28.1758 -8.61465 1.65175 57.6309 3.13359 12.2577 58.9827 -3.63661 5.89881 1.19256 9.21246 -90.003 8.45502 2.3785 -0.148539 -3.2137 2.36964 -0.253145 -25.7661 2.31309 0.573559 -5.75345 2.31309 0.573549 99.1927 -31.1007 -88.1689 37.8842 -31.2659 10.7094 -4.28631 12.1385 -114.625 -14.3378 -0.451077 -1.63736 -84.5239 -46.1281 86.2369 7.41651 32.8477 -16.9711 -28.0847 -12.2127 -94.1118 10.3608 -0.985961 -12.3808 6.95487 -4.14339 2.3316 8.55393 -4.40488 1.2058 
101.522 90.5473 68.8703 67.6267 -43.7818 68.6681 -166.516 55.5551 73.6149 -54.9171 20.8479 -4.11883 57.2793 0.313768 12.9769 56.6061 -8.09959 3.3506 178.063 -8.65199 94.0663 -22.3171 -16.0781 -1.98238 26.1748 13.3203 24.312 37.9161 -1.20678 6.66608 1.04121 9.30445 -89.7759 8.27054 2.17687 0.306779 -3.39847 2.18826 0.210618 -25.947 1.98397 0.947074 -5.93433 1.98397 0.947077 99.5439 -34.9944 -87.1603 39.8711 -32.873 16.8072 -5.21161 13.5496 -113.313 -13.2748 -0.319116 -2.4136 -86.4954 -44.1599 82.8101 6.11226 37.5252 -11.7492 -29.7868 -13.6572 -93.2117 2.2219 -0.526148 -15.0514 7.37957 -4.64893 -3.82365 7.02641 -3.45803 3.59126 
113.777 88.7625 84.535 72.6684 -44.984 78.0322 -166.909 47.4557 77.0682 -53.1866 22.5391 -5.21943 55.8579 -0.463389 16.1981 48.8322 -6.16828 -0.595223 176.677 6.20815 90.9057 -75.3881 -17.9145 -2.32679 34.5286 12.2232 12.6632 17.1882 2.91604 -5.14811 0.849082 9.77061 -90.2598 7.33542 1.5832 -0.587488 -4.33476 1.55582 -0.656632 -26.8774 1.68656 -0.0843862 -6.86476 1.68656 -0.0843962 99.5464 -39.8498 -86.8149 36.3505 -29.9311 15.661 -6.65768 13.3642 -110.714 -8.72331 -0.138906 -3.80577 -85.8438 -45.1203 84.0113 11.3148 38.4761 -14.138 -28.9417 -13.8754 -94.4914 2.38745 -0.510092 -14.5492 16.6337 -3.70687 -7.69854 2.58483 -0.950313 7.75895 
126.482 84.6182 100.391 75.9055 -45.5603 78.9786 -171.016 29.3928 76.0636 -55.4533 23.6923 -4.11046 74.4556 19.1958 40.8441 42.7408 -4.38256 -3.84829 176.57 29.9461 88.9769 -110.684 -16.5556 -3.79541 38.1059 10.0344 11.8687 22.4363 1.85216 -5.29987 0.163631 9.66338 -89.8242 7.54647 0.402861 0.326693 -4.12444 0.416858 0.308638 -26.6595 0.286045 0.432651 -6.6469 0.286045 0.432663 100.966 -41.8093 -84.2391 39.0053 -33.6172 19.4102 -5.66932 14.4597 -109.489 -7.1624 0.0379436 -6.2351 -85.1709 -44.5503 85.0029 17.0826 40.3236 -17.5553 -30.6476 -15.0065 -94.4544 2.12179 -0.480162 -14.2752 22.2268 -1.90235 -9.27118 -2.772 1.29145 7.98017 
139.653 84.5816 116.836 77.1688 -41.1537 79.5338 -177.564 12.5565 78.5769 -50.7978 24.0074 -0.145463 73.9297 16.764 34.9996 53.4701 -7.38986 1.98922 179.574 53.5416 83.5834 -108.169 -14.013 -3.70331 41.7986 8.67589 15.421 41.6119 -1.73584 -3.36288 -0.45856 9.21986 -89.9261 8.44485 -0.882678 0.211664 -3.22566 -0.872503 0.250302 -25.7646 -0.905494 -0.0634384 -5.75192 -0.905468 -0.0634235 102.155 -41.0721 -82.1752 47.0633 -28.5814 33.0712 -11.0187 18.691 -115.786 -2.24262 -0.0523277 -3.05228 -85.7649 -42.581 83.7303 24.2685 43.4934 -26.9538 -33.833 -16.3335 -94.1225 1.81779 -0.455471 -14.3123 21.6552 -2.10356 -7.43762 -5.36606 0.305108 3.81637 
155.515 89.2048 135.391 73.5253 -40.4617 85.4591 -176.96 -2.04834 91.8064 -35.8437 26.0353 7.05424 47.1494 -2.93156 2.62508 50.2175 -6.41707 0.550049 172.557 58.2333 95.3215 -71.787 -16.1107 -0.514338 49.6128 6.76832 10.9308 52.9711 -3.49477 1.05968 -0.752701 8.42334 -90.9431 10.0125 -1.92849 -1.70143 -1.65815 -2.0015 -1.61492 -24.1899 -1.32815 -2.20223 -4.1773 -1.32816 -2.20223 100.159 -39.716 -85.7617 51.126 -26.9461 39.6561 -10.755 18.489 -113.184 -3.48816 -0.0131748 -6.78559 -84.2789 -41.6759 86.055 14.4974 48.0713 -18.5799 -28.8023 -16.5332 -94.9413 1.16781 -0.429596 -15.2368 16.128 -0.283812 -15.0655 -8.91692 3.35869 11.692 
171.52 90.5581 152.468 72.9294 -38.4432 87.3038 175.268 -5.1238 91.2391 -49.8234 19.1534 9.53733 33.3476 -8.06926 -4.34611 47.2011 -5.54043 1.72847 174.844 50.6219 92.0292 -28.8633 -9.33067 3.5783 42.4508 10.1461 18.4596 67.0223 -5.01981 2.18201 -0.927288 8.2918 -91.4857 10.2479 -2.52603 -2.73421 -1.4233 -2.64387 -2.62044 -23.9443 -1.58808 -3.36644 -3.93169 -1.58806 -3.36644 99.7953 -40.2322 -86.3609 45.6249 -24.9299 34.8081 -8.01233 15.4824 -109.463 -0.120656 -0.0396147 -8.87196 -83.4053 -44.0875 87.7962 9.932 49.0038 -14.4557 -26.7858 -16.4542 -94.6685 1.09816 -0.367085 -13.5487 16.8296 -0.00491295 -17.4255 -11.5802 3.78049 17.1596 
186.292 89.0522 167.922 79.3212 -31.5932 94.6292 168.456 6.47732 94.8896 -89.8061 11.1251 4.33809 35.7134 -7.16567 5.43937 46.6094 -5.56467 -1.22983 166.141 42.3913 94.1885 -30.4719 -11.8255 10.9098 45.2441 9.67127 13.1173 44.4001 -2.27778 -1.00876 -1.10313 8.73283 -92.2651 9.32929 -3.21654 -4.2525 -2.34417 -3.40044 -4.10704 -24.8359 -1.79163 -5.02087 -4.82327 -1.79165 -5.02087 100.483 -42.5105 -85.0506 37.15 -28.9504 27.1611 -3.42797 13.5466 -108.271 -3.41515 0.0388695 -7.81002 -85.1748 -47.723 85.447 7.41066 46.394 -12.2026 -23.6626 -16.5182 -91.3957 -0.384203 -0.242708 -13.1229 21.5173 0.396037 -8.50037 -15.5468 2.30882 8.11803 
199.253 85.1664 183.342 87.2144 -16.3298 105.723 144.967 23.0135 103.645 -118.175 9.0339 -1.42575 37.9571 -4.69771 9.83515 41.3422 -3.93458 -4.49759 158.022 28.9903 96.3902 -52.3168 -15.5323 21.519 60.537 -0.0987951 -5.44633 53.0918 -2.95891 5.61404 -1.94418 9.43985 -93.4534 7.79724 -5.38605 -6.47002 -3.87761 -5.665 -6.22746 -26.3213 -3.19954 -7.78298 -6.30861 -3.19956 -7.783 98.8568 -44.1329 -87.8429 28.0618 -34.1419 17.4343 -0.248616 12.9126 -106.359 -5.88112 0.0205992 -6.12993 -86.6253 -49.3108 83.5367 3.88836 44.1419 -9.37229 -22.9107 -17.1413 -87.7115 0.771245 -0.366009 -14.2337 29.2703 1.11284 2.95587 -23.6472 1.40504 -6.42235 
